<?xml version="1.0" standalone="no"?><!DOCTYPE svg PUBLIC "-//W3C//DTD SVG 1.1//EN" "http://www.w3.org/Graphics/SVG/1.1/DTD/svg11.dtd"><svg t="1589703029000" class="icon" viewBox="0 0 1024 1024" version="1.1" xmlns="http://www.w3.org/2000/svg" p-id="649" xmlns:xlink="http://www.w3.org/1999/xlink" width="200" height="200"><defs><style type="text/css"></style></defs><path d="M933.632 360.448l-143.04 143.04a89.6 89.6 0 0 1-127.104 0L520.448 360.448a89.6 89.6 0 0 1 0-127.104l142.976-143.04a89.6 89.6 0 0 1 127.104 0l143.104 143.04a89.6 89.6 0 0 1 0 127.104zM356.224 960H153.92a89.6 89.6 0 0 1-89.6-89.6v-202.624a89.6 89.6 0 0 1 89.6-89.6h202.304a89.6 89.6 0 0 1 89.6 89.6v202.304a89.6 89.6 0 0 1-89.6 89.6z m0-472H153.92a89.6 89.6 0 0 1-89.6-89.6V195.776a89.6 89.6 0 0 1 89.6-89.6h202.304a89.6 89.6 0 0 1 89.6 89.6V398.08a89.6 89.6 0 0 1-89.6 89.856z m269.696 89.6h202.304a89.6 89.6 0 0 1 89.6 89.6v202.304a89.6 89.6 0 0 1-89.6 89.6H625.92a89.6 89.6 0 0 1-89.6-89.6v-201.728a89.6 89.6 0 0 1 89.6-89.92z" fill="#666666" p-id="650"></path></svg>